<svg width="58" height="59" viewBox="0 0 58 59" fill="none" xmlns="http://www.w3.org/2000/svg">
<rect y="1" width="58" height="58" rx="8" fill="black"/>
<path d="M20.6 40.4C18.5333 40.4 16.7222 39.9778 15.1667 39.1333C13.6111 38.2667 12.4 37.0556 11.5333 35.5C10.6667 33.9444 10.2333 32.1111 10.2333 30C10.2333 27.8889 10.6556 26.0556 11.5 24.5C12.3667 22.9444 13.5778 21.7444 15.1333 20.9C16.6889 20.0333 18.5111 19.6 20.6 19.6C23.1778 19.6 25.3111 20.2556 27 21.5667C28.6889 22.8556 29.7556 24.6556 30.2 26.9667H25.2333C24.9 25.9667 24.3444 25.2111 23.5667 24.7C22.7889 24.1889 21.8 23.9333 20.6 23.9333C18.9556 23.9333 17.6444 24.4667 16.6667 25.5333C15.6889 26.5778 15.2 28.0667 15.2 30C15.2 31.9333 15.6889 33.4333 16.6667 34.5C17.6444 35.5444 18.9556 36.0667 20.6 36.0667C23.1778 36.0667 24.7556 34.9556 25.3333 32.7333H30.3333C29.9111 35.1556 28.8556 37.0444 27.1667 38.4C25.4778 39.7333 23.2889 40.4 20.6 40.4ZM34.613 40V24.9667H32.1464V20H37.213V23.8667H38.613C39.1686 22.5333 40.0241 21.5222 41.1797 20.8333C42.3352 20.1444 43.6575 19.8 45.1464 19.8H46.813V24.0667H44.913C43.113 24.0667 41.7575 24.5889 40.8464 25.6333C39.9575 26.6778 39.513 28.0667 39.513 29.8V40H34.613Z" fill="white"/>
</svg>
